<svg width="29" height="30" viewBox="0 0 29 30" fill="none" xmlns="http://www.w3.org/2000/svg">
<path d="M0.299669 6.65931C0.399559 6.65931 0.499448 6.69261 0.599338 6.7259C1.33186 6.85909 2.03109 7.05887 2.76361 7.25865C4.16207 7.6915 5.06108 8.59051 5.49393 9.98897C5.72701 10.7215 5.89349 11.4873 6.02668 12.2531C6.05997 12.4529 6.09327 12.686 6.35964 12.7193C6.62601 12.6527 6.62601 12.4196 6.65931 12.2198C6.7925 11.454 6.99228 10.6882 7.22535 9.92237C7.65821 8.52392 8.55721 7.65821 9.95567 7.22535C10.6882 6.99228 11.454 6.82579 12.1865 6.65931C12.3863 6.62601 12.6527 6.59272 12.686 6.32635C12.686 6.02668 12.4196 6.02668 12.2198 5.99338C11.9868 5.92679 11.787 5.92679 11.5539 5.86019C10.555 5.62712 9.55611 5.42734 8.6904 4.8613C7.7248 4.22866 7.32524 3.26306 7.05887 2.23087C6.89239 1.59823 6.7592 0.9656 6.62601 0.332966C6.59272 0.166483 6.52612 0 6.32634 0C6.12657 0 6.09327 0.166483 6.05997 0.299669C5.99338 0.566042 5.96008 0.832414 5.89349 1.09879C5.66041 2.13098 5.46063 3.12988 4.828 4.02888C4.22866 4.92789 3.29636 5.29415 2.29746 5.59382C1.63153 5.7936 0.9656 5.89349 0.299669 6.05997C0.166483 6.05997 0 6.15986 0 6.32635C0 6.52612 0.133186 6.59272 0.299669 6.62601V6.65931Z" fill="#4AFF88"/>
<path d="M3.79623 25.8042C4.29568 25.9041 4.79513 26.0373 5.29457 26.1704C6.26017 26.4701 6.89281 27.1028 7.19248 28.1017C7.35896 28.6344 7.45885 29.1338 7.55874 29.6666C7.55874 29.7998 7.59204 29.9663 7.79182 29.9996C7.9583 29.9663 7.99159 29.7998 8.02489 29.6333C8.12478 29.1005 8.25797 28.5678 8.42445 28.0351C8.72412 27.0695 9.35675 26.4368 10.3224 26.1704C10.8551 26.004 11.3545 25.8708 11.8873 25.7709C12.0205 25.7709 12.2203 25.7376 12.2203 25.5378C12.2203 25.338 12.0205 25.338 11.8873 25.3047C11.7208 25.2714 11.5876 25.2381 11.4211 25.2048C10.7219 25.0384 10.0227 24.9052 9.42335 24.5056C8.75742 24.0728 8.49104 23.3735 8.29127 22.6743C8.19138 22.2415 8.09149 21.7753 7.9916 21.3424C7.9916 21.2426 7.925 21.1094 7.79182 21.1094C7.65863 21.1094 7.62533 21.2426 7.59204 21.3424C7.55874 21.5422 7.52544 21.7087 7.45885 21.9085C7.29237 22.6077 7.15918 23.3402 6.72633 23.9396C6.29347 24.5722 5.66084 24.8386 4.96161 25.0384C4.49546 25.1716 4.02931 25.2714 3.56315 25.3713C3.46326 25.3713 3.36337 25.4379 3.33008 25.5711C3.33008 25.7043 3.42997 25.7376 3.52986 25.7709C3.59645 25.7709 3.66304 25.7709 3.76293 25.8042H3.79623Z" fill="#4AFF88"/>
<path d="M10.0225 15.483C10.0225 15.7494 10.2222 15.8493 10.4553 15.9159C10.5885 15.9492 10.755 15.9825 10.9215 16.0158C11.987 16.2155 13.0524 16.4819 14.0846 16.8149C16.149 17.4475 17.4476 18.7794 18.0469 20.8438C18.3799 21.9425 18.6463 23.0413 18.846 24.1401C18.9126 24.4398 18.9459 24.7727 19.3455 24.8393C19.7118 24.7394 19.7451 24.4065 19.8116 24.1068C20.0114 22.9747 20.3111 21.8426 20.6441 20.7439C21.2767 18.7128 22.6086 17.4142 24.6396 16.8149C25.7384 16.4819 26.8372 16.2155 27.936 16.0158C28.2357 15.9492 28.6352 15.9492 28.6352 15.5496C28.6352 15.1167 28.2357 15.1167 27.9693 15.0502C27.6363 14.9836 27.3034 14.917 27.0037 14.8504C25.5387 14.5174 24.1069 14.2177 22.8083 13.3853C21.4099 12.453 20.8105 11.0213 20.411 9.52292C20.1779 8.59062 19.9781 7.65831 19.7784 6.72601C19.7118 6.49293 19.6452 6.22656 19.3122 6.22656C19.0458 6.22656 18.9459 6.45964 18.9126 6.69271C18.8128 7.09227 18.7462 7.49183 18.6796 7.85809C18.3466 9.35644 18.0136 10.8548 17.1479 12.1534C16.2489 13.4519 14.8838 14.018 13.4187 14.4508C12.4531 14.7172 11.4875 14.917 10.4886 15.1167C10.2888 15.15 10.0558 15.2499 10.0225 15.5163V15.483Z" fill="#4AFF88"/>
</svg>
